<?xml version="1.0" encoding="utf-8"?>
<!-- Generator: Adobe Illustrator 20.1.0, SVG Export Plug-In . SVG Version: 6.00 Build 0)  -->
<svg version="1.1" id="Lager_1" xmlns="http://www.w3.org/2000/svg" xmlns:xlink="http://www.w3.org/1999/xlink" x="0px" y="0px"
	 viewBox="0 0 841.9 595.3" style="enable-background:new 0 0 841.9 595.3;" xml:space="preserve">
<g>
	<g>
		<path d="M304,267.3c0,9.3-7.4,16.7-16.9,16.7c-7,0-11.6-4.7-11.6-12c0-8.5,7.8-16,16.7-16C299.4,255.9,304,260.4,304,267.3z
			 M287.5,267.7c0,1.7,1,3,2.3,3c2.1,0,3.9-2.3,3.9-4.8c0-1.7-1-2.9-2.4-2.9C289.4,262.9,287.5,265.2,287.5,267.7z"/>
		<path d="M324,256.3c1.5,0,2.1,0.6,2.1,2c0,1.5-0.5,3.3-1.1,4c-0.5,0.6-1.3,0.8-2.4,0.8h-3.8c-1.1,4.7-2.1,9.3-2.1,10.4
			c0,1.8,1.2,2.8,3.2,2.8c0.8,0,1.5-0.2,2.8-0.7c0.6-0.3,1.2-0.4,1.6-0.4c0.6,0,1.1,0.5,1.1,1.2c0,1.2-1.3,2.8-3.6,4.4
			c-2.5,1.8-5.8,2.8-8.9,2.8c-4.9,0-8.5-3-8.5-7.1c0-1.9,0.1-2.6,2.1-8.6c0.8-2.3,1-3.2,1.3-4.9c-1.7-0.2-2.5-0.9-2.5-2.3
			c0-1.7,0.9-2.7,6.1-7c4.7-3.9,7.4-5.6,9-5.6c0.9,0,1.6,0.7,1.6,1.6c0,0.4,0,0.4-1.1,3.8c-0.5,1.6-0.5,1.8-0.6,2.6H324z"/>
		<path d="M332,247.4c0.1-0.8,0.2-1.4,0.2-2.1c0-1.3-0.4-1.8-1.6-2.3c2.8-2.6,6.4-4.3,9.4-4.3c2.6,0,4.3,1.5,4.3,3.6
			c0,0.5-0.1,0.9-0.1,1.3l-6.4,29.1c-0.1,0.5-0.2,1.1-0.2,1.4c0,1.2,0.8,2,2.1,2c0.4,0,0.9-0.1,1.4-0.3c1.1-0.4,1.4-0.5,1.6-0.5
			c0.6,0,1.2,0.6,1.2,1.3c0,0.8-0.8,1.9-2.1,3.1c-2.7,2.5-6.3,4-9.7,4c-4,0-6.7-2.4-6.7-6c0-0.5,0.1-1.1,0.2-1.8L332,247.4z"/>
		<path d="M372.8,271.8c-0.3,1.2-0.4,2.1-0.4,2.5c0,1.1,0.9,1.9,2.1,1.9c0.4,0,0.9-0.1,1.4-0.3c1-0.3,1.4-0.4,1.6-0.4
			c0.6,0,1.2,0.6,1.2,1.3c0,3-6.9,7.2-11.9,7.2c-3.3,0-5.7-2.4-5.7-5.7c0-0.4,0-1,0.1-1.6c-2.4,3-2.9,3.5-4.1,4.7
			c-1.8,1.8-4.3,2.8-6.2,2.8c-4.2,0-7.2-3.9-7.2-9.4c0-9.5,7.7-18.9,15.6-18.9c2.8,0,5.1,1.1,6.9,3.1c3.5-2.4,4.5-2.9,6.4-2.9
			c1.8,0,3.2,1.1,3.1,2.6c0,0.4-0.1,0.9-0.2,1.4L372.8,271.8z M357,267.8c0,1.7,0.8,2.7,2.3,2.7c1.9,0,3.8-2.5,3.8-5
			c0-1.3-0.8-2.2-2.2-2.2C358.9,263.3,357,265.5,357,267.8z"/>
		<path d="M381.8,264.6c0.2-1.3,0.4-2.1,0.4-2.7c0-1.1-0.4-1.6-1.6-2.3c3.5-2.7,6.5-4,9.5-4c2.8,0,4,1.2,4.3,4c3.1-2.7,6.4-4,9.7-4
			c3.8,0,6.4,2.3,6.4,5.7c0,0.6-0.1,1.3-0.3,2.1l-2.1,8.9c-0.1,0.8-0.3,1.5-0.3,1.8c0,1.3,0.8,2.1,2.1,2.1c0.6,0,0.6,0,2.8-0.7h0.2
			c0.6,0,1.1,0.5,1.1,1.3c0,3.1-6.7,7.1-11.8,7.1c-4,0-6.5-2.3-6.5-5.8c0-0.4,0.1-1,0.2-1.5l1.6-7.5c0.1-0.6,0.2-1.2,0.2-1.6
			c0-1.1-0.8-1.8-2-1.8c-1.8,0-3.2,1.5-3.8,4.4l-1.9,8.5c-0.6,3-2.6,4.7-5.1,4.7h-3c-2.1,0-3.2,0.4-4.6,1.6L381.8,264.6z"/>
		<path d="M437.2,247.3c0.2-0.7,0.3-1.5,0.3-2.1c0-1.2-0.3-1.6-1.7-2.5c4-3,6.4-4,9.4-4c2.7,0,4.3,1.4,4.3,3.8
			c0,0.4-0.1,0.7-0.1,1.1L443,272c-0.2,0.7-0.3,1.4-0.3,1.9c0,1.3,0.8,2.2,2.1,2.2c0.4,0,0.9-0.1,1.3-0.2c1.1-0.4,1.6-0.5,1.8-0.5
			c0.6,0,1.1,0.6,1.1,1.3c0,3-6.8,7.2-11.8,7.2c-3.4,0-6-2.4-6-5.5c0-0.6,0-1,0.1-1.6c-3.9,5.2-6.9,7.2-10.4,7.2
			c-4.3,0-7.1-3.6-7.1-9.3c0-4.5,1.8-9.4,4.9-13.2c3-3.7,6.7-5.6,10.9-5.6c2.4,0,3.8,0.5,5.3,1.7L437.2,247.3z M427,267.9
			c0,1.6,0.9,2.7,2.3,2.7c2.1,0,4.1-2.6,4.1-5.2c0-1.3-1-2.4-2.3-2.4C429.1,263,427,265.4,427,267.9z"/>
		<path d="M475,261.8c0,1.8-1.6,3.5-3.5,3.5c-1.3,0-2.3-0.6-4.1-2.3c-1.2-1.2-2.1-1.7-2.8-1.7c-0.7,0-1.3,0.6-1.3,1.2
			c0,1.1,0.4,1.5,4.7,3.8c3.5,2,5.5,4.5,5.5,7.3c0,6.2-5.7,10.4-14,10.4c-6.7,0-11.3-2.9-11.3-7.2c0-2.6,1.9-4.5,4.3-4.5
			c1.3,0,2.7,0.6,3.9,1.5c0.2,0.2,0.9,0.9,2.1,2.3c1.1,1.2,2.4,1.9,3.3,1.9c0.8,0,1.6-0.7,1.6-1.6c0-0.9-0.5-1.3-4.1-3.7
			c-5-3.3-6.4-5-6.4-8.3c0-4.7,5.2-8.6,11.4-8.6C470.3,255.8,475,258.4,475,261.8z"/>
		<path d="M526.5,250.4c0.5,0,1,0.6,1,1.3c0,3.3-7.1,7.8-12.2,7.8c-6.1,0-10.8-4.6-10.8-10.6c0-7.3,6.6-13,15-13
			c3.5,0,5,0.4,11.7,2.8c2.5,1,4.2,1.5,6.9,2.3c2.3-1.8,4.1-2.6,6.4-2.6c2.5,0,4.2,1.3,4.2,3.4c0,2.8-2.8,4.7-7,4.7h-0.6
			c-2,3.8-3.3,7.3-3.8,9.8c5.8-1,8.6-3.7,13.5-13.5c3.3-6.2,6.9-9.1,11.5-9.1c3.7,0,6.4,2.1,6.4,4.8c0,2.1-1.8,4-3.8,4
			c-0.5,0-1.1-0.1-1.7-0.3c-0.8-0.3-1.6-0.4-1.9-0.4c-1.2,0-2.1,0.8-3.5,3.4c-5.3,9-7.7,11.5-12.7,13.5c5,0.9,6.6,3,6.7,9.1
			c0.1,1.6,0.4,2.3,1.1,2.3c0.2,0,0.4,0,0.6-0.1c0.4-0.1,0.6-0.1,0.8-0.1c0.6,0,1.1,0.7,1.1,1.5c0,1.3-1,3.8-2.3,6
			c-2.6,4-6.2,6.4-9.8,6.4c-1.5,0-3.1-0.8-4.1-1.9c-0.9-1.1-1.2-2.5-1.2-4.8c0-2,0-2,1.1-7.3c0.2-1.1,0.4-2.2,0.4-3.1
			c0-1.7-0.6-3.1-1.6-3.6c-0.6-0.4-0.7-0.4-2.1-0.4h-0.4l-0.4,1.3l-1.8,6.9c-1.4,5.7-4.4,11.3-7.7,14.7c-4.3,4.3-10.6,6.9-16.5,6.9
			c-9.6,0-16.9-6.4-16.9-14.7c0-5.8,3.4-11,9.2-14c3-1.5,6.4-2.3,9.6-2.3c2.6,0,4.3,0.9,4.3,2.3c0,0.6-0.1,0.9-1.2,1.9
			c-0.7,0.7-1.1,1.5-1.1,2.4c0,2.1,1.5,3.3,4,3.3c2.5,0,4.9-1.3,6.7-3.8c2.1-2.8,2.1-2.8,5.9-12.2c1.3-3.3,2.3-5.2,4.4-8.8
			c-1.3-0.1-1.3-0.1-3.9-0.4c-0.9-0.1-1.8-0.1-2.6-0.1c-2.3,0-3.9,1.1-3.9,2.8c0,0.8,0.8,1.8,1.3,1.8L526.5,250.4z"/>
		<path d="M586.3,271.8c-0.3,1.2-0.4,2.1-0.4,2.5c0,1.1,0.9,1.9,2.1,1.9c0.4,0,0.9-0.1,1.4-0.3c1-0.3,1.4-0.4,1.6-0.4
			c0.6,0,1.2,0.6,1.2,1.3c0,3-6.9,7.2-11.9,7.2c-3.3,0-5.7-2.4-5.7-5.7c0-0.4,0-1,0.1-1.6c-2.4,3-2.9,3.5-4.1,4.7
			c-1.8,1.8-4.2,2.8-6.2,2.8c-4.2,0-7.2-3.9-7.2-9.4c0-9.5,7.7-18.9,15.6-18.9c2.8,0,5.1,1.1,6.9,3.1c3.5-2.4,4.5-2.9,6.5-2.9
			c1.8,0,3.2,1.1,3.1,2.6c0,0.4-0.1,0.9-0.2,1.4L586.3,271.8z M570.6,267.8c0,1.7,0.9,2.7,2.3,2.7c1.9,0,3.8-2.5,3.8-5
			c0-1.3-0.8-2.2-2.2-2.2C572.4,263.3,570.6,265.5,570.6,267.8z"/>
		<path d="M611.5,256.3c1.5,0,2.1,0.6,2.1,2c0,1.5-0.5,3.3-1.1,4c-0.5,0.6-1.3,0.8-2.4,0.8h-3.8c-1.1,4.7-2.1,9.3-2.1,10.4
			c0,1.8,1.2,2.8,3.2,2.8c0.8,0,1.5-0.2,2.8-0.7c0.6-0.3,1.2-0.4,1.6-0.4c0.6,0,1.1,0.5,1.1,1.2c0,1.2-1.3,2.8-3.6,4.4
			c-2.5,1.8-5.8,2.8-8.9,2.8c-4.9,0-8.5-3-8.5-7.1c0-1.9,0.1-2.6,2.1-8.6c0.8-2.3,1-3.2,1.3-4.9c-1.7-0.2-2.5-0.9-2.5-2.3
			c0-1.7,0.8-2.7,6.1-7c4.7-3.9,7.4-5.6,9-5.6c0.9,0,1.6,0.7,1.6,1.6c0,0.4,0,0.4-1.1,3.8c-0.5,1.6-0.5,1.8-0.6,2.6H611.5z"/>
		<path d="M632.7,256.3c1.5,0,2.1,0.6,2.1,2c0,1.5-0.5,3.3-1.1,4c-0.5,0.6-1.3,0.8-2.4,0.8h-3.8c-1.1,4.7-2.1,9.3-2.1,10.4
			c0,1.8,1.2,2.8,3.2,2.8c0.8,0,1.5-0.2,2.8-0.7c0.6-0.3,1.2-0.4,1.6-0.4c0.6,0,1.1,0.5,1.1,1.2c0,1.2-1.3,2.8-3.6,4.4
			c-2.5,1.8-5.8,2.8-8.9,2.8c-4.9,0-8.5-3-8.5-7.1c0-1.9,0.1-2.6,2.1-8.6c0.8-2.3,1-3.2,1.3-4.9c-1.7-0.2-2.5-0.9-2.5-2.3
			c0-1.7,0.8-2.7,6.1-7c4.7-3.9,7.4-5.6,9-5.6c0.9,0,1.6,0.7,1.6,1.6c0,0.4,0,0.4-1.1,3.8c-0.5,1.6-0.5,1.8-0.6,2.6H632.7z"/>
		<path d="M640.8,247.2c0.2-0.7,0.3-1.6,0.3-2.1c0-1.1-0.4-1.7-1.6-2.3c2.8-2.6,6.5-4.1,9.6-4.1c2.5,0,4,1.4,4,3.8
			c0,0.3-0.1,0.7-0.1,1.1l-3.5,16c5-3.4,6.4-4,9.6-4c3.9,0,6.5,2.2,6.5,5.5c0,0.9-0.1,1.6-0.3,2.4l-1.8,8.2c-0.2,1-0.4,1.8-0.4,2.2
			c0,1.3,0.9,2.3,2.1,2.3c0.4,0,0.8-0.1,1.3-0.2c1.4-0.6,1.5-0.6,1.7-0.6c0.6,0,1.1,0.6,1.1,1.2c0,3.1-6.7,7.2-11.5,7.2
			c-4,0-6.8-2.4-6.8-5.9c0-0.5,0.1-1,0.1-1.4l1.7-7.4c0.1-0.6,0.1-1.1,0.1-1.6c0-1.1-0.8-1.8-1.9-1.8c-2.2,0-3.3,1.5-4.2,5.3
			l-1.7,7.9c-0.2,1-0.8,2.1-1.6,2.8c-1,1.1-1.8,1.3-3.8,1.3h-2.4c-1.8,0-3,0.4-4.8,1.8L640.8,247.2z"/>
		<path d="M681.6,273.5c0,1.6,1.6,2.9,3.5,2.9c2.6,0,4.5-0.8,9.4-3.7c0.5-0.3,1.2-0.5,1.7-0.5c0.9,0,1.6,0.7,1.6,1.6
			c0,1.6-1.3,3.4-3.8,5.4c-4.2,3.3-8.5,5-13,5c-7.1,0-12.1-4.8-12.1-11.6c0-8.9,8.8-16.8,18.8-16.8c5.3,0,9.2,3,9.2,7.4
			c0,3.4-2.6,6.4-7.4,8.4c-2.3,1-5.5,1.6-7.9,1.6V273.5z M688,263.6c0-0.9-0.6-1.6-1.5-1.6c-1.8,0-3.5,2-4.2,4.8
			C686.1,266.2,688,265.2,688,263.6z"/>
		<path d="M701.4,264.8c0.1-0.8,0.3-1.7,0.3-2.3c0-1.6-0.4-2.1-1.6-2.6c3-2.6,6.5-4.1,9.4-4.1c2.6,0,4.1,1.4,4.2,4.1
			c4-3.2,6.4-4.3,9.5-4.3c3.3,0,5.5,1.5,6.3,4.3c3.5-2.9,6.6-4.2,10.1-4.2c3.7,0,6.4,2.3,6.4,5.6c0,0.7-0.1,1.3-0.2,1.9l-1.9,9.1
			c-0.2,0.7-0.3,1.4-0.3,1.8c0,1.3,0.8,2.2,2.1,2.2c0.4,0,0.8-0.1,1.3-0.3c1-0.4,1.4-0.5,1.6-0.5c0.6,0,1.1,0.6,1.1,1.3
			c0,0.8-0.7,1.9-2,3.1c-2.8,2.6-6.3,4-9.8,4c-3.9,0-6.7-2.4-6.7-5.8c0-0.4,0.1-1,0.2-1.5l1.7-7.4c0.1-0.5,0.2-1,0.2-1.4
			c0-1.3-0.7-2.1-1.9-2.1c-1.9,0-2.9,1.3-3.7,4.6l-1.7,8c-0.7,3.3-2.5,4.9-5.2,4.9h-3c-1.8,0-2.8,0.4-4.6,1.9l3.5-15.9
			c0.1-0.6,0.2-1.2,0.2-1.8c0-1.1-0.7-1.8-1.8-1.8c-1.8,0-3,1.5-3.8,4.8l-1.8,8c-0.8,3.6-2.3,4.9-5.7,4.9h-2.3
			c-2.2,0-2.9,0.3-4.8,1.9L701.4,264.8z"/>
	</g>
	<g>
		<path d="M248.3,251.8c1.8,1.6,2.7,3.3,2.6,5.1c-0.1,0.8-0.3,1.5-0.8,2.2c1.6,0.4,3.3,0.7,5.2,0.8c9.6,0.9,17.8-1.8,18.2-6.1
			c0.3-3-3.2-5.9-8.6-7.7c-1.6,1.7-3.5,3.1-6.1,4.1C255.5,251.4,251.9,251.9,248.3,251.8z"/>
		<path d="M160.5,262c2.4,1,4.8,1.7,7.2,2.1C165,263.4,162.5,262.7,160.5,262z"/>
		<g>
			<path d="M194.2,293c-45.3,17.6,0.3,13.2,38,15.5c50.9,3.2,57.7,57-31.9,43.6c-45.4-6.8-97.7-55-51.7-99.5c-0.3,0.3,3.4,3.8,3.7,4
				c1.7,1.5,3.5,2.8,5.5,3.9c4.1,2.2,8.5,3.5,13,4.2c2.5,0.4,5.1,0.7,7.6,0.8c7.8,0.4,17,0,24.2-3.5c1.2-0.6,3.8-2.2,3.9-3.8
				c0.2-2.5-2.7-5-7.3-6.8c-0.7-0.3-1.4-0.5-2.2-0.8c-1.8,1.2-3.9,2.4-3.4,1.8c0.6-0.7,1.2-1.5,1.7-2.3c0.3-0.5,0.6-1.1,0.9-1.6
				c2.9-7.6,1.6-16-2.8-22.7c5.9,6.5,8.6,15.1,6.7,23c6.5,1.8,10.8,5.1,10.6,8.7c-0.1,1.9-1.5,3.6-3.8,4.8c3.6-0.3,7.1-0.9,10.4-1.6
				c0.9,0.2,1.9,0.4,2.8,0.6c1.5,0.3,3.1,0.5,4.7,0.7c11.9,1.1,21.8-1.8,22.3-6.5c0.1-1.3-0.5-2.6-1.6-3.8c-1.7-0.2-3.3-0.5-4.9-1
				c-1.2-0.3-2.4-0.8-3.6-1.3c-6.2-2.7-11.3-7.2-14.1-12.5c2.7,4.3,6.8,8,12.1,10.3c11.5,5.1,24.2,1.9,29.7-7.1
				c-2.8-0.1-5.6-2.8-6-5.2c-0.1-0.5,0-1,0.1-1.5c4.4,5.3,7.1,4.2,7.1,4.2c2.7-6.5,1.4-13.9-3-19.9c3,2.3,5,4.8,6.3,7.4l9.2-13.1
				l-18.2,2.5c-2.3-2.3-5.1-4.2-8.4-5.7c-0.9-0.4-1.9-0.8-2.8-1.1l-0.6,10.9l-3.4-16.8c0,0-11.4,1.2-17.3,12.7c0.5-2.1,1.2-4,2-5.6
				c0.2-0.4,0.4-0.7,0.6-1.1c-9-3.9-20.2-6.3-32.3-6.3c-26.1,0-47.8,10.8-52.3,25c-0.1,0.3-0.4,1.2-0.5,1.4
				c-71.6,38.9-37.2,103.5-25.1,119c13.3,17,42.2,40.4,89.1,44.3C356.6,403.7,325.1,242.3,194.2,293z M251.4,246.4l-2.1-7.7l8,3.4
				L251.4,246.4z M243.7,224.9l0.2-0.4c0.4,6.4,5.9,7.9,10,6.8C249.1,236,240.3,231.6,243.7,224.9z"/>
		</g>
	</g>
</g>
</svg>
